HIERARCHY
ROOT Hips
{
	OFFSET -246.947098 92.295853 298.950195
	CHANNELS 6 Xposition Yposition Zposition Zrotation Yrotation Xrotation 
	JOINT LeftUpLeg
	{
		OFFSET 0.103455 1.857832 10.548509
		CHANNELS 3 Zrotation Yrotation Xrotation
		JOINT LeftLeg
		{
			OFFSET 43.500000 -0.000038 0.000000
			CHANNELS 3 Zrotation Yrotation Xrotation
			JOINT LeftFoot
			{
				OFFSET 42.372196 0.000027 -0.000005
				CHANNELS 3 Zrotation Yrotation Xrotation
				JOINT LeftToe
				{
					OFFSET 17.300005 0.000000 0.000006
					CHANNELS 3 Zrotation Yrotation Xrotation
					End Site
					{
						OFFSET 0.000000 0.000000 0.000000
					}
				}
			}
		}
	}
	JOINT RightUpLeg
	{
		OFFSET 0.103456 1.857826 -10.548491
		CHANNELS 3 Zrotation Yrotation Xrotation
		JOINT RightLeg
		{
			OFFSET 43.500046 0.000000 0.000031
			CHANNELS 3 Zrotation Yrotation Xrotation
			JOINT RightFoot
			{
				OFFSET 42.372269 -0.000023 0.000007
				CHANNELS 3 Zrotation Yrotation Xrotation
				JOINT RightToe
				{
					OFFSET 17.299986 -0.000008 -0.000004
					CHANNELS 3 Zrotation Yrotation Xrotation
					End Site
					{
						OFFSET 0.000000 0.000000 0.000000
					}
				}
			}
		}
	}
	JOINT Spine
	{
		OFFSET 6.901961 -2.603715 -0.000002
		CHANNELS 3 Zrotation Yrotation Xrotation
		JOINT Spine1
		{
			OFFSET 12.588100 -0.000008 0.000001
			CHANNELS 3 Zrotation Yrotation Xrotation
			JOINT Spine2
			{
				OFFSET 12.343203 -0.000016 0.000001
				CHANNELS 3 Zrotation Yrotation Xrotation
				JOINT Neck
				{
					OFFSET 25.832899 0.000013 -0.000005
					CHANNELS 3 Zrotation Yrotation Xrotation
					JOINT Head
					{
						OFFSET 11.766600 0.000004 0.000007
						CHANNELS 3 Zrotation Yrotation Xrotation
						End Site
						{
							OFFSET 0.000000 0.000000 0.000000
						}
					}
				}
				JOINT LeftShoulder
				{
					OFFSET 19.745905 -1.480350 6.000103
					CHANNELS 3 Zrotation Yrotation Xrotation
					JOINT LeftArm
					{
						OFFSET 11.284127 0.000012 -0.000026
						CHANNELS 3 Zrotation Yrotation Xrotation
						JOINT LeftForeArm
						{
							OFFSET 33.000061 -0.000016 0.000035
							CHANNELS 3 Zrotation Yrotation Xrotation
							JOINT LeftHand
							{
								OFFSET 25.199999 0.000022 0.000000
								CHANNELS 3 Zrotation Yrotation Xrotation
								End Site
								{
									OFFSET 0.000000 0.000000 0.000000
								}
							}
						}
					}
				}
				JOINT RightShoulder
				{
					OFFSET 19.746105 -1.480368 -6.000077
					CHANNELS 3 Zrotation Yrotation Xrotation
					JOINT RightArm
					{
						OFFSET 11.284150 -0.000028 -0.000009
						CHANNELS 3 Zrotation Yrotation Xrotation
						JOINT RightForeArm
						{
							OFFSET 33.000080 0.000039 0.000015
							CHANNELS 3 Zrotation Yrotation Xrotation
							JOINT RightHand
							{
								OFFSET 25.199778 0.000128 0.000429
								CHANNELS 3 Zrotation Yrotation Xrotation
								End Site
								{
									OFFSET 0.000000 0.000000 0.000000
								}
							}
						}
					}
				}
			}
		}
	}
}
MOTION
Frames: 15
Frame Time: 0.033333
-139.773697 83.145126 488.725189 66.880652 1.601181 0.729614 165.790917 3.023606 -179.991085 -52.484212 -1.521692 -2.238089 84.793226 2.023056 2.151423 21.454551 0.003092 0.000000 157.898838 11.650605 -171.917883 -82.514211 -4.171133 5.316728 79.364257 0.358845 15.600027 21.454560 -0.003109 -0.000017 11.538951 -0.366350 1.736498 13.051640 -0.926488 3.420521 12.734114 -0.905693 3.426053 19.678887 6.311626 26.173432 -25.796960 -25.421705 39.141874 -142.258825 -79.082669 -39.900702 32.281848 53.059379 70.846424 -64.316087 -13.673576 2.172267 -0.345227 -10.073499 7.873689 171.295489 76.665602 -7.436515 -10.815448 -57.022572 -6.712237 -83.048236 12.107718 -2.886507 -11.858491 17.322053 -42.269551 
-129.971405 84.015137 489.308594 68.691930 0.722852 -1.183411 162.494859 1.320206 175.168466 -42.165049 -0.833883 -1.305863 72.714016 2.162638 3.798138 21.454551 0.003092 0.000000 162.011254 11.315598 -173.389966 -88.832334 -4.011936 3.283972 78.579223 1.625688 14.264251 21.454551 -0.003110 -0.000018 11.105631 0.110646 2.575101 12.197313 -0.051131 5.147365 11.880614 -0.019950 5.147588 21.732077 5.095474 23.699245 -26.091642 -25.406065 36.665323 -122.746860 -80.070567 -59.620626 44.920109 45.854055 84.897353 -73.428324 -9.962529 2.284065 -2.409910 -10.037251 5.551097 153.262301 81.097459 -25.551302 -18.576327 -59.877318 9.333339 -93.161950 4.721204 -2.818353 -16.624074 17.980601 -46.497927 
-120.220200 85.125191 489.729706 70.712525 0.803345 -0.304413 161.664936 0.908401 178.681205 -26.159146 -2.814491 -1.647283 54.689909 0.376611 -1.968676 21.454553 0.003092 0.000000 168.430020 10.326706 -175.760452 -85.912701 -3.709776 -2.111871 75.479041 5.980257 14.462429 21.454557 -0.003108 -0.000020 10.765771 0.404204 3.230188 11.532604 0.484052 6.484498 11.216710 0.523255 6.481487 22.692769 4.455727 21.827379 -27.354827 -24.930257 34.881301 -99.539687 -83.960251 -82.695593 54.849745 41.984852 87.832128 -78.006272 -7.215407 2.286318 -6.098348 -5.538585 10.786131 139.505193 82.444017 -39.348341 -18.701306 -58.058199 12.776683 -98.855356 1.857711 -2.873149 -21.346955 25.459820 -42.057303 
-110.061302 84.867592 489.696991 73.629952 1.896328 2.412201 158.040879 0.749298 178.872928 -21.140858 -3.362292 -0.059186 55.375397 -4.247674 -9.025218 21.454553 0.003092 -0.000001 172.905692 7.554993 -179.625151 -76.235273 -3.014206 -4.286056 71.494370 7.625759 13.174678 21.454557 -0.003108 -0.000017 10.397134 0.220575 3.020337 10.785679 0.158402 6.047952 10.469513 0.194991 6.046899 20.880800 4.907786 21.427869 -28.200232 -25.009048 34.738837 -102.734740 -85.907531 -79.325073 59.000636 42.116043 84.783842 -77.651294 -6.884544 2.248237 -4.564609 -5.526036 5.342630 153.787324 81.413820 -25.002748 -18.213676 -51.750011 11.275518 -96.845840 2.633277 -2.837366 -21.451322 22.576850 -46.741119 
-99.520592 84.152603 489.189606 75.431469 2.530425 6.813995 152.330267 0.643202 173.123015 -33.497806 -1.196345 1.652839 62.617009 -5.009304 -9.335846 21.454550 0.003092 -0.000000 176.036610 3.427597 179.742507 -63.728609 -5.357853 -1.451496 91.680058 2.995353 12.744497 21.454557 -0.003109 -0.000017 10.409224 0.147791 2.363910 10.807180 0.073957 4.731179 10.490263 0.102629 4.730656 17.237926 5.871395 21.020073 -27.684982 -25.376113 34.376195 -116.617120 -83.644457 -65.554332 48.663237 49.674432 78.460965 -72.958920 -9.610156 2.240182 -0.840901 -9.684919 -3.102360 154.776977 80.787334 -24.036571 -14.365221 -49.856467 4.123021 -87.060337 9.246577 -2.863151 -12.505873 20.520702 -43.461064 
-89.316933 84.031868 488.674103 74.839469 2.758308 10.152314 150.494435 -1.531907 172.726468 -51.523228 -0.566968 2.008446 70.855884 -5.243189 -11.516099 21.454553 0.003094 -0.000001 175.634995 1.059799 -179.765087 -55.754482 -4.542346 6.066114 99.587682 -3.269696 9.484488 21.454560 -0.003108 -0.000017 10.928552 0.195355 2.240994 11.847445 0.159943 4.490101 11.530427 0.187169 4.489067 14.172541 7.746431 20.224573 -27.417721 -25.170582 33.508433 -135.732729 -80.054182 -46.476903 26.089115 56.681991 61.041742 -67.300443 -13.380008 2.269867 -0.252048 -13.817237 -1.097412 161.132810 79.464101 -17.664464 -7.549820 -49.346717 -7.894702 -70.857305 18.138177 -2.783222 -2.771970 18.737844 -34.045839 
-79.556847 84.419930 488.606293 75.409967 3.990350 11.571105 151.795613 -3.870895 173.971830 -66.607697 -0.774680 3.434170 77.098772 -5.518585 -11.335098 21.454551 0.003093 -0.000003 169.129978 3.078995 179.181598 -54.830378 -5.304526 5.329845 94.871703 -2.242783 11.056481 21.454562 -0.003109 -0.000018 11.049354 -0.285698 2.178604 12.071117 -0.797377 4.315438 11.753969 -0.771191 4.320169 12.759115 8.767935 20.110495 -28.389715 -23.645497 33.055298 -143.128144 -77.085078 -39.098038 9.494187 58.754134 38.523500 -71.327105 -13.495887 2.441853 -2.891133 -13.435172 9.056706 163.840775 77.309402 -15.008917 4.858465 -49.520343 -24.011559 -58.012628 22.124221 -2.545019 0.654480 14.641549 -37.427572 
-70.440407 85.149361 488.865997 75.626908 5.868150 12.885712 158.259923 -5.699493 174.766769 -74.093981 -0.784294 3.080897 80.486840 -4.473209 -9.593065 21.454548 0.003094 -0.000000 163.843438 9.507003 -177.233054 -52.365346 -3.642490 1.968392 86.855008 0.452675 9.307006 21.454562 -0.003109 -0.000017 11.170949 -0.765666 1.624718 12.306898 -1.699968 3.158921 11.989179 -1.680734 3.169126 13.496743 6.486321 20.726829 -31.548497 -22.649681 33.949954 -136.117570 -77.585348 -46.210540 5.660565 63.562471 22.978361 -81.631668 -8.794949 2.552344 -6.495519 -12.545620 16.246187 166.953579 77.322700 -11.838909 24.159207 -49.259987 -41.882307 -60.832001 20.615688 -2.548541 0.300550 16.080161 -31.195694 
-61.466499 86.620071 489.289795 75.886305 5.452193 13.420687 167.313311 -9.439804 175.276424 -72.948401 -0.858033 2.812070 81.161574 -3.496666 -6.505262 21.454545 0.003092 0.000001 162.517535 12.573900 -170.119604 -42.078924 -4.832802 -2.610608 75.795545 4.329945 8.259790 21.454558 -0.003108 -0.000017 10.865158 -0.894276 0.991862 11.703500 -1.884363 1.888288 11.385387 -1.872792 1.899641 16.227590 5.859627 22.287148 -32.130600 -23.192083 35.938208 -127.748443 -79.690652 -54.584604 10.965810 63.705147 20.513191 -93.701262 -2.235826 2.625921 -8.388120 -14.254243 16.210930 168.854379 79.612569 -9.821684 42.566617 -48.749478 -56.752035 -66.815205 18.491023 -2.639538 -0.276898 15.515062 -26.246001 
-51.889000 87.821274 490.019196 77.525557 4.821857 12.440613 174.130823 -9.641207 177.366407 -67.214498 -0.362150 4.351189 82.127322 -4.841762 -7.868828 21.454548 0.003090 0.000002 160.958558 12.545592 -177.352583 -28.330646 -1.818828 0.597513 60.811380 5.073200 12.760762 21.454562 -0.003108 -0.000018 10.175086 -1.117683 0.472406 10.330951 -2.273090 0.843231 10.012616 -2.267821 0.856955 18.314765 6.337283 23.767115 -30.019918 -23.869647 37.182778 -124.558854 -78.942350 -57.861121 12.641604 58.471720 22.715401 -100.649394 -1.119325 2.856788 -10.986009 -10.027952 19.866211 163.742898 81.093818 -14.946561 56.178111 -47.772966 -60.878808 -72.255137 14.845735 -2.610707 -1.456365 11.214140 -33.074689 
-41.870640 87.473251 490.893707 78.736659 4.584175 12.540985 176.695833 -7.434692 -175.792089 -63.879351 -1.863620 6.777851 80.312438 -6.872313 -8.791087 21.454557 0.003092 0.000000 159.319531 13.806305 179.149237 -24.461961 -0.033420 1.710404 62.974365 7.450579 21.225800 21.454557 -0.003108 -0.000017 9.850296 -1.136195 0.052192 9.689552 -2.272773 0.009046 9.371168 -2.272543 0.022784 18.868239 5.976903 24.388920 -29.842801 -23.645283 37.663647 -125.436588 -78.466504 -57.002631 12.663988 54.873736 25.988282 -97.259203 -1.893397 2.760259 -8.682509 -7.839940 18.338923 157.153336 80.205955 -21.661924 59.636465 -47.622787 -57.662875 -76.255743 12.302347 -2.603254 -2.286884 11.288921 -34.683048 
-31.438240 85.946312 491.833191 78.611004 4.663808 10.722197 177.618755 -4.384002 -177.371202 -57.703357 -0.699580 6.605096 86.847310 -4.913065 -2.246875 21.454546 0.003092 0.000000 154.386386 14.176101 -172.902988 -40.734090 -2.884224 0.388866 73.097846 7.141239 23.471540 21.454560 -0.003108 -0.000017 10.045466 -1.220654 0.425826 10.072367 -2.473738 0.743895 9.753987 -2.469062 0.758834 17.957921 6.440611 24.876292 -30.924347 -23.396164 38.373557 -130.363900 -79.318570 -51.957297 14.661783 54.581903 33.523443 -85.947078 -5.501101 2.510899 -4.001204 -8.550371 11.286397 165.759757 78.627901 -13.002306 47.029209 -49.577912 -48.545809 -78.224026 12.059380 -2.671244 -3.886218 12.296633 -38.441316 
-20.585501 84.776894 493.186890 77.849280 5.583572 7.011292 174.748423 -0.748199 177.731125 -55.518158 -0.651298 3.162677 96.378388 -2.011318 0.748111 21.454553 0.003092 0.000000 151.331215 14.671902 -169.381766 -62.016690 -5.494276 3.382336 80.817202 2.222850 18.685825 21.454555 -0.003113 -0.000015 10.295796 -1.471295 1.235527 10.551400 -3.049128 2.332392 10.233098 -3.034858 2.350771 18.172483 6.290412 24.877489 -30.922783 -23.064791 38.206220 -135.240013 -79.135897 -47.023090 16.603568 55.891233 47.262993 -68.660586 -14.336319 2.390773 -0.988096 -7.203352 14.601700 170.159424 77.549579 -8.565603 26.130000 -51.114728 -34.691477 -79.700187 12.910558 -2.795491 -5.646608 10.678934 -44.979801 
-9.350944 84.702583 494.812012 76.668040 5.465406 4.491303 169.240408 1.862793 177.242753 -54.139938 -0.859938 1.211306 94.947129 -0.607844 1.545231 21.454553 0.003092 -0.000000 154.046843 13.979906 -168.915195 -77.235813 -4.675029 7.041426 84.046584 -1.653031 14.943732 21.454562 -0.003107 -0.000016 10.790910 -1.371540 2.087821 11.520913 -2.944259 4.029718 11.203222 -2.919751 4.047407 17.347031 5.568810 24.354793 -30.917131 -23.191475 37.730706 -140.861833 -78.536418 -41.343084 24.671181 54.852406 59.732586 -60.681197 -16.020770 2.193569 1.234272 -7.434599 14.078851 173.031586 76.322330 -5.675530 3.499828 -49.636221 -17.123385 -82.766115 12.080533 -2.872073 -7.293003 10.621199 -49.282376 
1.734819 85.429588 496.083588 76.869695 4.116064 3.025513 163.071340 1.645600 178.073810 -50.212009 -2.390943 0.639026 87.164559 0.026873 2.088952 21.454553 0.003092 -0.000000 159.837246 11.511398 -167.725404 -84.018492 -3.861371 7.523496 83.961473 -2.598671 11.855118 21.454560 -0.003107 -0.000017 10.965456 -0.974852 3.074979 11.860759 -2.260073 6.034631 11.544335 -2.223519 6.048109 17.104278 4.527022 22.934351 -31.622277 -22.851689 36.267755 -131.758912 -78.117857 -50.610571 36.342422 50.466946 70.824390 -67.287588 -12.538386 2.211416 0.846859 -9.337970 4.356871 162.882991 76.765309 -16.007949 -9.325222 -47.002650 -2.827712 -88.125081 8.879523 -2.884855 -9.553287 12.137629 -49.564709 
